<?xml version="1.0" encoding="UTF-8" standalone="no"?><svg xmlns="http://www.w3.org/2000/svg" xmlns:xlink="http://www.w3.org/1999/xlink" contentScriptType="application/ecmascript" contentStyleType="text/css" height="387px" preserveAspectRatio="none" style="width:618px;height:387px;" version="1.1" viewBox="0 0 618 387" width="618px" zoomAndPan="magnify"><defs/><g><!--MD5=[6cdaf02a05b3fe07425d663f3e74653e]
cluster Phpolar\\Validators--><polygon fill="#FFFFFF" points="265,24,415,24,422,46.2969,596,46.2969,596,375,265,375,265,24" style="stroke: #000000; stroke-width: 1.5;"/><line style="stroke: #000000; stroke-width: 1.5;" x1="265" x2="422" y1="46.2969" y2="46.2969"/><text fill="#000000" font-family="sans-serif" font-size="14" font-weight="bold" lengthAdjust="spacingAndGlyphs" textLength="144" x="269" y="38.9951">Phpolar\Validators</text><!--MD5=[cf1b3535544ed38b0603ec98ca1703a5]
cluster PhpContrib\\Validator--><polygon fill="#FFFFFF" points="22,158,191,158,198,180.2969,237,180.2969,237,308,22,308,22,158" style="stroke: #000000; stroke-width: 1.5;"/><line style="stroke: #000000; stroke-width: 1.5;" x1="22" x2="198" y1="180.2969" y2="180.2969"/><text fill="#000000" font-family="sans-serif" font-size="14" font-weight="bold" lengthAdjust="spacingAndGlyphs" textLength="163" x="26" y="172.9951">PhpContrib\Validator</text><!--MD5=[a5f1a8f2c0dc066d1d2f9744fb93f594]
class Phpolar\\Validators\\AbstractValidator--><rect fill="#FEFECE" height="32" id="Phpolar\\Validators\\AbstractValidator" style="stroke: #A80036; stroke-width: 1.5;" width="140" x="281" y="193"/><ellipse cx="296" cy="209" fill="#A9DCDF" rx="11" ry="11" style="stroke: #A80036; stroke-width: 1.0;"/><path d="M296.1094,204.3438 L294.9531,209.4219 L297.2813,209.4219 L296.1094,204.3438 Z M294.625,202.1094 L297.6094,202.1094 L300.9688,214.5 L298.5156,214.5 L297.75,211.4375 L294.4688,211.4375 L293.7188,214.5 L291.2813,214.5 L294.625,202.1094 Z "/><text fill="#000000" font-family="sans-serif" font-size="12" font-style="italic" lengthAdjust="spacingAndGlyphs" textLength="108" x="310" y="213.1543">AbstractValidator</text><!--MD5=[399b73ffec4e1f2d393a4bb07bf5b4f6]
class Phpolar\\Validators\\Max--><rect fill="#FEFECE" height="32" id="Phpolar\\Validators\\Max" style="stroke: #A80036; stroke-width: 1.5;" width="56" x="502.5" y="327"/><ellipse cx="517.5" cy="343" fill="#ADD1B2" rx="11" ry="11" style="stroke: #A80036; stroke-width: 1.0;"/><path d="M520.4688,348.6406 Q519.8906,348.9375 519.25,349.0781 Q518.6094,349.2344 517.9063,349.2344 Q515.4063,349.2344 514.0781,347.5938 Q512.7656,345.9375 512.7656,342.8125 Q512.7656,339.6875 514.0781,338.0313 Q515.4063,336.375 517.9063,336.375 Q518.6094,336.375 519.25,336.5313 Q519.9063,336.6875 520.4688,336.9844 L520.4688,339.7031 Q519.8438,339.125 519.25,338.8594 Q518.6563,338.5781 518.0313,338.5781 Q516.6875,338.5781 516,339.6563 Q515.3125,340.7188 515.3125,342.8125 Q515.3125,344.9063 516,345.9844 Q516.6875,347.0469 518.0313,347.0469 Q518.6563,347.0469 519.25,346.7813 Q519.8438,346.5 520.4688,345.9219 L520.4688,348.6406 Z "/><text fill="#000000" font-family="sans-serif" font-size="12" lengthAdjust="spacingAndGlyphs" textLength="24" x="531.5" y="347.1543">Max</text><!--MD5=[1170dfde867ba68a76a584df6811477d]
class Phpolar\\Validators\\MaxLength--><rect fill="#FEFECE" height="32" id="Phpolar\\Validators\\MaxLength" style="stroke: #A80036; stroke-width: 1.5;" width="99" x="481" y="260"/><ellipse cx="496" cy="276" fill="#ADD1B2" rx="11" ry="11" style="stroke: #A80036; stroke-width: 1.0;"/><path d="M498.9688,281.6406 Q498.3906,281.9375 497.75,282.0781 Q497.1094,282.2344 496.4063,282.2344 Q493.9063,282.2344 492.5781,280.5938 Q491.2656,278.9375 491.2656,275.8125 Q491.2656,272.6875 492.5781,271.0313 Q493.9063,269.375 496.4063,269.375 Q497.1094,269.375 497.75,269.5313 Q498.4063,269.6875 498.9688,269.9844 L498.9688,272.7031 Q498.3438,272.125 497.75,271.8594 Q497.1563,271.5781 496.5313,271.5781 Q495.1875,271.5781 494.5,272.6563 Q493.8125,273.7188 493.8125,275.8125 Q493.8125,277.9063 494.5,278.9844 Q495.1875,280.0469 496.5313,280.0469 Q497.1563,280.0469 497.75,279.7813 Q498.3438,279.5 498.9688,278.9219 L498.9688,281.6406 Z "/><text fill="#000000" font-family="sans-serif" font-size="12" lengthAdjust="spacingAndGlyphs" textLength="67" x="510" y="280.1543">MaxLength</text><!--MD5=[052cf289857d9debec12cf42d058dc2a]
class Phpolar\\Validators\\Min--><rect fill="#FEFECE" height="32" id="Phpolar\\Validators\\Min" style="stroke: #A80036; stroke-width: 1.5;" width="53" x="324.5" y="260"/><ellipse cx="339.5" cy="276" fill="#ADD1B2" rx="11" ry="11" style="stroke: #A80036; stroke-width: 1.0;"/><path d="M342.4688,281.6406 Q341.8906,281.9375 341.25,282.0781 Q340.6094,282.2344 339.9063,282.2344 Q337.4063,282.2344 336.0781,280.5938 Q334.7656,278.9375 334.7656,275.8125 Q334.7656,272.6875 336.0781,271.0313 Q337.4063,269.375 339.9063,269.375 Q340.6094,269.375 341.25,269.5313 Q341.9063,269.6875 342.4688,269.9844 L342.4688,272.7031 Q341.8438,272.125 341.25,271.8594 Q340.6563,271.5781 340.0313,271.5781 Q338.6875,271.5781 338,272.6563 Q337.3125,273.7188 337.3125,275.8125 Q337.3125,277.9063 338,278.9844 Q338.6875,280.0469 340.0313,280.0469 Q340.6563,280.0469 341.25,279.7813 Q341.8438,279.5 342.4688,278.9219 L342.4688,281.6406 Z "/><text fill="#000000" font-family="sans-serif" font-size="12" lengthAdjust="spacingAndGlyphs" textLength="21" x="353.5" y="280.1543">Min</text><!--MD5=[273d3382c8ca4d65f30fb99c1e6f12fc]
class Phpolar\\Validators\\MinLength--><rect fill="#FEFECE" height="32" id="Phpolar\\Validators\\MinLength" style="stroke: #A80036; stroke-width: 1.5;" width="96" x="482.5" y="193"/><ellipse cx="497.5" cy="209" fill="#ADD1B2" rx="11" ry="11" style="stroke: #A80036; stroke-width: 1.0;"/><path d="M500.4688,214.6406 Q499.8906,214.9375 499.25,215.0781 Q498.6094,215.2344 497.9063,215.2344 Q495.4063,215.2344 494.0781,213.5938 Q492.7656,211.9375 492.7656,208.8125 Q492.7656,205.6875 494.0781,204.0313 Q495.4063,202.375 497.9063,202.375 Q498.6094,202.375 499.25,202.5313 Q499.9063,202.6875 500.4688,202.9844 L500.4688,205.7031 Q499.8438,205.125 499.25,204.8594 Q498.6563,204.5781 498.0313,204.5781 Q496.6875,204.5781 496,205.6563 Q495.3125,206.7188 495.3125,208.8125 Q495.3125,210.9063 496,211.9844 Q496.6875,213.0469 498.0313,213.0469 Q498.6563,213.0469 499.25,212.7813 Q499.8438,212.5 500.4688,211.9219 L500.4688,214.6406 Z "/><text fill="#000000" font-family="sans-serif" font-size="12" lengthAdjust="spacingAndGlyphs" textLength="64" x="511.5" y="213.1543">MinLength</text><!--MD5=[828dfb520aff187da352fd60539e416c]
class Phpolar\\Validators\\Pattern--><rect fill="#FEFECE" height="32" id="Phpolar\\Validators\\Pattern" style="stroke: #A80036; stroke-width: 1.5;" width="79" x="491" y="126"/><ellipse cx="506" cy="142" fill="#ADD1B2" rx="11" ry="11" style="stroke: #A80036; stroke-width: 1.0;"/><path d="M508.9688,147.6406 Q508.3906,147.9375 507.75,148.0781 Q507.1094,148.2344 506.4063,148.2344 Q503.9063,148.2344 502.5781,146.5938 Q501.2656,144.9375 501.2656,141.8125 Q501.2656,138.6875 502.5781,137.0313 Q503.9063,135.375 506.4063,135.375 Q507.1094,135.375 507.75,135.5313 Q508.4063,135.6875 508.9688,135.9844 L508.9688,138.7031 Q508.3438,138.125 507.75,137.8594 Q507.1563,137.5781 506.5313,137.5781 Q505.1875,137.5781 504.5,138.6563 Q503.8125,139.7188 503.8125,141.8125 Q503.8125,143.9063 504.5,144.9844 Q505.1875,146.0469 506.5313,146.0469 Q507.1563,146.0469 507.75,145.7813 Q508.3438,145.5 508.9688,144.9219 L508.9688,147.6406 Z "/><text fill="#000000" font-family="sans-serif" font-size="12" lengthAdjust="spacingAndGlyphs" textLength="47" x="520" y="146.1543">Pattern</text><!--MD5=[a9d509250f96c01f006394b12b8dfe7b]
class Phpolar\\Validators\\Required--><rect fill="#FEFECE" height="32" id="Phpolar\\Validators\\Required" style="stroke: #A80036; stroke-width: 1.5;" width="88" x="486.5" y="59"/><ellipse cx="501.5" cy="75" fill="#ADD1B2" rx="11" ry="11" style="stroke: #A80036; stroke-width: 1.0;"/><path d="M504.4688,80.6406 Q503.8906,80.9375 503.25,81.0781 Q502.6094,81.2344 501.9063,81.2344 Q499.4063,81.2344 498.0781,79.5938 Q496.7656,77.9375 496.7656,74.8125 Q496.7656,71.6875 498.0781,70.0313 Q499.4063,68.375 501.9063,68.375 Q502.6094,68.375 503.25,68.5313 Q503.9063,68.6875 504.4688,68.9844 L504.4688,71.7031 Q503.8438,71.125 503.25,70.8594 Q502.6563,70.5781 502.0313,70.5781 Q500.6875,70.5781 500,71.6563 Q499.3125,72.7188 499.3125,74.8125 Q499.3125,76.9063 500,77.9844 Q500.6875,79.0469 502.0313,79.0469 Q502.6563,79.0469 503.25,78.7813 Q503.8438,78.5 504.4688,77.9219 L504.4688,80.6406 Z "/><text fill="#000000" font-family="sans-serif" font-size="12" lengthAdjust="spacingAndGlyphs" textLength="56" x="515.5" y="79.1543">Required</text><!--MD5=[ff30902a390244634af22db3a5b7e088]
class PhpContrib\\Validator\\ValidatorInterface--><rect fill="#FEFECE" height="32" id="PhpContrib\\Validator\\ValidatorInterface" style="stroke: #A80036; stroke-width: 1.5;" width="145" x="57" y="193"/><ellipse cx="72" cy="209" fill="#B4A7E5" rx="11" ry="11" style="stroke: #A80036; stroke-width: 1.0;"/><path d="M67.9219,204.7656 L67.9219,202.6094 L75.3125,202.6094 L75.3125,204.7656 L72.8438,204.7656 L72.8438,212.8438 L75.3125,212.8438 L75.3125,215 L67.9219,215 L67.9219,212.8438 L70.3906,212.8438 L70.3906,204.7656 L67.9219,204.7656 Z "/><text fill="#000000" font-family="sans-serif" font-size="12" font-style="italic" lengthAdjust="spacingAndGlyphs" textLength="113" x="86" y="213.1543">ValidatorInterface</text><!--MD5=[2d64833e716d55d7daadfc8499d722b7]
class PhpContrib\\Validator\\MessageGetterInterface--><rect fill="#FEFECE" height="32" id="PhpContrib\\Validator\\MessageGetterInterface" style="stroke: #A80036; stroke-width: 1.5;" width="183" x="38" y="260"/><ellipse cx="53" cy="276" fill="#B4A7E5" rx="11" ry="11" style="stroke: #A80036; stroke-width: 1.0;"/><path d="M48.9219,271.7656 L48.9219,269.6094 L56.3125,269.6094 L56.3125,271.7656 L53.8438,271.7656 L53.8438,279.8438 L56.3125,279.8438 L56.3125,282 L48.9219,282 L48.9219,279.8438 L51.3906,279.8438 L51.3906,271.7656 L48.9219,271.7656 Z "/><text fill="#000000" font-family="sans-serif" font-size="12" font-style="italic" lengthAdjust="spacingAndGlyphs" textLength="151" x="67" y="280.1543">MessageGetterInterface</text><!--MD5=[f6ff0d2e53fcc7f863e3d47bcd31fda5]
reverse link PhpContrib\\Validator\\ValidatorInterface to Phpolar\\Validators\\AbstractValidator--><path d="M222.03,201 C222.03,201 280.95,201 280.95,201 " fill="none" id="PhpContrib\\Validator\\ValidatorInterface&lt;-Phpolar\\Validators\\AbstractValidator" style="stroke: #516F42; stroke-width: 1.0; stroke-dasharray: 7.0,7.0;"/><polygon fill="none" points="222.03,208,202.03,201,222.03,194,222.03,208" style="stroke: #516F42; stroke-width: 1.0;"/><!--MD5=[1cad2f7f2c4d27150eca5d6ccb1f1241]
reverse link PhpContrib\\Validator\\MessageGetterInterface to Phpolar\\Validators\\AbstractValidator--><path d="M212,239.88 C212,239.88 212,217 212,217 C212,217 246.21,217 280.69,217 " fill="none" id="PhpContrib\\Validator\\MessageGetterInterface&lt;-Phpolar\\Validators\\AbstractValidator" style="stroke: #516F42; stroke-width: 1.0; stroke-dasharray: 7.0,7.0;"/><polygon fill="none" points="219,239.88,212,259.88,205,239.88,219,239.88" style="stroke: #516F42; stroke-width: 1.0;"/><!--MD5=[c61d90450081362d3d3b95efdcc1e9b6]
reverse link Phpolar\\Validators\\AbstractValidator to Phpolar\\Validators\\Max--><path d="M392,245.16 C392,245.16 392,343 392,343 C392,343 462,343 502.47,343 " fill="none" id="Phpolar\\Validators\\AbstractValidator&lt;-Phpolar\\Validators\\Max" style="stroke: #516F42; stroke-width: 1.0;"/><polygon fill="none" points="385,245.16,392,225.16,399,245.16,385,245.16" style="stroke: #516F42; stroke-width: 1.0;"/><!--MD5=[2cafe28530eb8d00b4f807f845d6d7a3]
reverse link Phpolar\\Validators\\AbstractValidator to Phpolar\\Validators\\MaxLength--><path d="M407,245.22 C407,245.22 407,276 407,276 C407,276 446.62,276 480.98,276 " fill="none" id="Phpolar\\Validators\\AbstractValidator&lt;-Phpolar\\Validators\\MaxLength" style="stroke: #516F42; stroke-width: 1.0;"/><polygon fill="none" points="400,245.22,407,225.22,414,245.22,400,245.22" style="stroke: #516F42; stroke-width: 1.0;"/><!--MD5=[eb18310759ea18f8d28a380680f1adec]
reverse link PhpContrib\\Validator\\ValidatorInterface to Phpolar\\Validators\\Min--><path d="M222.28,209 C222.28,209 251,209 251,209 C251,209 251,270.67 251,270.67 C251,270.67 294.84,270.67 324.46,270.67 " fill="none" id="PhpContrib\\Validator\\ValidatorInterface&lt;-Phpolar\\Validators\\Min" style="stroke: #516F42; stroke-width: 1.0; stroke-dasharray: 7.0,7.0;"/><polygon fill="none" points="222.28,216,202.28,209,222.28,202,222.28,216" style="stroke: #516F42; stroke-width: 1.0;"/><!--MD5=[e920dedf4df554c156cbf49c88b5df58]
reverse link PhpContrib\\Validator\\MessageGetterInterface to Phpolar\\Validators\\Min--><path d="M241.19,281.33 C241.19,281.33 324.05,281.33 324.05,281.33 " fill="none" id="PhpContrib\\Validator\\MessageGetterInterface&lt;-Phpolar\\Validators\\Min" style="stroke: #516F42; stroke-width: 1.0; stroke-dasharray: 7.0,7.0;"/><polygon fill="none" points="241.19,288.33,221.19,281.33,241.19,274.33,241.19,288.33" style="stroke: #516F42; stroke-width: 1.0;"/><!--MD5=[4636a0d1944dcaeaac57f1dde6f3372e]
reverse link Phpolar\\Validators\\AbstractValidator to Phpolar\\Validators\\MinLength--><path d="M441.17,209 C441.17,209 482.27,209 482.27,209 " fill="none" id="Phpolar\\Validators\\AbstractValidator&lt;-Phpolar\\Validators\\MinLength" style="stroke: #516F42; stroke-width: 1.0;"/><polygon fill="none" points="441.17,216,421.17,209,441.17,202,441.17,216" style="stroke: #516F42; stroke-width: 1.0;"/><!--MD5=[6f9a47e5717a164e8aee7cab90ba3ee5]
reverse link Phpolar\\Validators\\AbstractValidator to Phpolar\\Validators\\Pattern--><path d="M375,172.78 C375,172.78 375,142 375,142 C375,142 444.79,142 490.86,142 " fill="none" id="Phpolar\\Validators\\AbstractValidator&lt;-Phpolar\\Validators\\Pattern" style="stroke: #516F42; stroke-width: 1.0;"/><polygon fill="none" points="382,172.78,375,192.78,368,172.78,382,172.78" style="stroke: #516F42; stroke-width: 1.0;"/><!--MD5=[4f247ee77adfb98127b06e76c55d29c4]
reverse link Phpolar\\Validators\\AbstractValidator to Phpolar\\Validators\\Required--><path d="M328,172.84 C328,172.84 328,75 328,75 C328,75 426.73,75 486.31,75 " fill="none" id="Phpolar\\Validators\\AbstractValidator&lt;-Phpolar\\Validators\\Required" style="stroke: #516F42; stroke-width: 1.0;"/><polygon fill="none" points="335,172.84,328,192.84,321,172.84,335,172.84" style="stroke: #516F42; stroke-width: 1.0;"/><!--MD5=[4978f0a570172a6f9eb072a40ac3ef59]
@startuml
   skinparam ArrowColor #516f42
   skinparam activityBorderColor #516f42
   skinparam activityBackgroundColor #ffffff
   skinparam activityDiamondBorderColor #516f42
   skinparam activityDiamondBackgroundColor #ffffff
   skinparam shadowing false

skinparam shadowing false
skinparam linetype ortho
hide empty members
left to right direction
set namespaceSeparator \\


abstract class \\Phpolar\\Validators\\AbstractValidator implements \\PhpContrib\\Validator\\ValidatorInterface,\\PhpContrib\\Validator\\MessageGetterInterface {
}

class \\Phpolar\\Validators\\Max extends \\Phpolar\\Validators\\AbstractValidator {
}

class \\Phpolar\\Validators\\MaxLength extends \\Phpolar\\Validators\\AbstractValidator {
}

class \\Phpolar\\Validators\\Min implements \\PhpContrib\\Validator\\ValidatorInterface,\\PhpContrib\\Validator\\MessageGetterInterface {
}

class \\Phpolar\\Validators\\MinLength extends \\Phpolar\\Validators\\AbstractValidator {
}

class \\Phpolar\\Validators\\Pattern extends \\Phpolar\\Validators\\AbstractValidator {
}

class \\Phpolar\\Validators\\Required extends \\Phpolar\\Validators\\AbstractValidator {
}

@enduml

PlantUML version 1.2020.02(Sun Mar 01 04:22:07 CST 2020)
(GPL source distribution)
Java Runtime: OpenJDK Runtime Environment
JVM: OpenJDK 64-Bit Server VM
Java Version: 11.0.20.1+1-post-Ubuntu-0ubuntu122.04
Operating System: Linux
Default Encoding: UTF-8
Language: en
Country: US
--></g></svg>