<svg xmlns="http://www.w3.org/2000/svg" xmlns:xlink="http://www.w3.org/1999/xlink" contentStyleType="text/css" height="431px" preserveAspectRatio="none" style="width:721px;height:431px;background:#FFFFFF;" version="1.1" viewBox="0 0 721 431" width="721px" zoomAndPan="magnify"><defs/><g><!--cluster PhpContrib--><g id="cluster_PhpContrib"><path d="M8.5,134 L98.0254,134 A3.75,3.75 0 0 1 100.5254,136.5 L107.5254,156.2969 L284.5,156.2969 A2.5,2.5 0 0 1 287,158.7969 L287,364.5 A2.5,2.5 0 0 1 284.5,367 L8.5,367 A2.5,2.5 0 0 1 6,364.5 L6,136.5 A2.5,2.5 0 0 1 8.5,134 " fill="none" style="stroke:#000000;stroke-width:1.5;"/><line style="stroke:#000000;stroke-width:1.5;" x1="6" x2="107.5254" y1="156.2969" y2="156.2969"/><text fill="#000000" font-family="sans-serif" font-size="14" font-weight="bold" lengthAdjust="spacing" textLength="88.5254" x="10" y="148.9951">PhpContrib</text></g><!--cluster Validator--><g id="cluster_Validator"><path d="M32.5,177 L106.0635,177 A3.75,3.75 0 0 1 108.5635,179.5 L115.5635,199.2969 L260.5,199.2969 A2.5,2.5 0 0 1 263,201.7969 L263,340.5 A2.5,2.5 0 0 1 260.5,343 L32.5,343 A2.5,2.5 0 0 1 30,340.5 L30,179.5 A2.5,2.5 0 0 1 32.5,177 " fill="none" style="stroke:#000000;stroke-width:1.5;"/><line style="stroke:#000000;stroke-width:1.5;" x1="30" x2="115.5635" y1="199.2969" y2="199.2969"/><text fill="#000000" font-family="sans-serif" font-size="14" font-weight="bold" lengthAdjust="spacing" textLength="72.5635" x="34" y="191.9951">Validator</text></g><!--cluster Phpolar--><g id="cluster_Phpolar"><path d="M313.5,6 L375.5176,6 A3.75,3.75 0 0 1 378.0176,8.5 L385.0176,28.2969 L711.5,28.2969 A2.5,2.5 0 0 1 714,30.7969 L714,421.5 A2.5,2.5 0 0 1 711.5,424 L313.5,424 A2.5,2.5 0 0 1 311,421.5 L311,8.5 A2.5,2.5 0 0 1 313.5,6 " fill="none" style="stroke:#000000;stroke-width:1.5;"/><line style="stroke:#000000;stroke-width:1.5;" x1="311" x2="385.0176" y1="28.2969" y2="28.2969"/><text fill="#000000" font-family="sans-serif" font-size="14" font-weight="bold" lengthAdjust="spacing" textLength="61.0176" x="315" y="20.9951">Phpolar</text></g><!--cluster Validators--><g id="cluster_Validators"><path d="M337.5,49 L419.3965,49 A3.75,3.75 0 0 1 421.8965,51.5 L428.8965,71.2969 L687.5,71.2969 A2.5,2.5 0 0 1 690,73.7969 L690,397.5 A2.5,2.5 0 0 1 687.5,400 L337.5,400 A2.5,2.5 0 0 1 335,397.5 L335,51.5 A2.5,2.5 0 0 1 337.5,49 " fill="none" style="stroke:#000000;stroke-width:1.5;"/><line style="stroke:#000000;stroke-width:1.5;" x1="335" x2="428.8965" y1="71.2969" y2="71.2969"/><text fill="#000000" font-family="sans-serif" font-size="14" font-weight="bold" lengthAdjust="spacing" textLength="80.8965" x="339" y="63.9951">Validators</text></g><!--class ValidatorInterface__class--><g id="elem_ValidatorInterface__class"><rect codeLine="15" fill="#F1F1F1" height="40.2656" id="ValidatorInterface__class" rx="2.5" ry="2.5" style="stroke:#181818;stroke-width:0.5;" width="157.8906" x="67.5" y="212"/><ellipse cx="82.5" cy="232.1328" fill="#ADD1B2" rx="11" ry="11" style="stroke:#181818;stroke-width:1;"/><path d="M85.4688,237.7734 Q84.8906,238.0703 84.25,238.2109 Q83.6094,238.3672 82.9063,238.3672 Q80.4063,238.3672 79.0781,236.7266 Q77.7656,235.0703 77.7656,231.9453 Q77.7656,228.8203 79.0781,227.1641 Q80.4063,225.5078 82.9063,225.5078 Q83.6094,225.5078 84.25,225.6641 Q84.9063,225.8203 85.4688,226.1172 L85.4688,228.8359 Q84.8438,228.2578 84.25,227.9922 Q83.6563,227.7109 83.0313,227.7109 Q81.6875,227.7109 81,228.7891 Q80.3125,229.8516 80.3125,231.9453 Q80.3125,234.0391 81,235.1172 Q81.6875,236.1797 83.0313,236.1797 Q83.6563,236.1797 84.25,235.9141 Q84.8438,235.6328 85.4688,235.0547 L85.4688,237.7734 Z " fill="#000000"/><text fill="#000000" font-family="sans-serif" font-size="12" font-style="italic" lengthAdjust="spacing" textLength="64.4824" x="127.2041" y="228.1387">&#171;external&#187;</text><text fill="#000000" font-family="sans-serif" font-size="14" lengthAdjust="spacing" textLength="125.8906" x="96.5" y="243.9639">ValidatorInterface</text></g><!--class MessageGetterInterface__class--><g id="elem_MessageGetterInterface__class"><rect codeLine="19" fill="#F1F1F1" height="40.2656" id="MessageGetterInterface__class" rx="2.5" ry="2.5" style="stroke:#181818;stroke-width:0.5;" width="200.8477" x="46" y="287"/><ellipse cx="61" cy="307.1328" fill="#ADD1B2" rx="11" ry="11" style="stroke:#181818;stroke-width:1;"/><path d="M63.9688,312.7734 Q63.3906,313.0703 62.75,313.2109 Q62.1094,313.3672 61.4063,313.3672 Q58.9063,313.3672 57.5781,311.7266 Q56.2656,310.0703 56.2656,306.9453 Q56.2656,303.8203 57.5781,302.1641 Q58.9063,300.5078 61.4063,300.5078 Q62.1094,300.5078 62.75,300.6641 Q63.4063,300.8203 63.9688,301.1172 L63.9688,303.8359 Q63.3438,303.2578 62.75,302.9922 Q62.1563,302.7109 61.5313,302.7109 Q60.1875,302.7109 59.5,303.7891 Q58.8125,304.8516 58.8125,306.9453 Q58.8125,309.0391 59.5,310.1172 Q60.1875,311.1797 61.5313,311.1797 Q62.1563,311.1797 62.75,310.9141 Q63.3438,310.6328 63.9688,310.0547 L63.9688,312.7734 Z " fill="#000000"/><text fill="#000000" font-family="sans-serif" font-size="12" font-style="italic" lengthAdjust="spacing" textLength="64.4824" x="127.1826" y="303.1387">&#171;external&#187;</text><text fill="#000000" font-family="sans-serif" font-size="14" lengthAdjust="spacing" textLength="168.8477" x="75" y="318.9639">MessageGetterInterface</text></g><!--class AbstractValidator__class--><g id="elem_AbstractValidator__class"><rect codeLine="23" fill="#F1F1F1" height="32" id="AbstractValidator__class" rx="2.5" ry="2.5" style="stroke:#181818;stroke-width:0.5;" width="153.9805" x="351" y="218"/><ellipse cx="366" cy="234" fill="#A9DCDF" rx="11" ry="11" style="stroke:#181818;stroke-width:1;"/><path d="M366.1094,229.3438 L364.9531,234.4219 L367.2813,234.4219 L366.1094,229.3438 Z M364.625,227.1094 L367.6094,227.1094 L370.9688,239.5 L368.5156,239.5 L367.75,236.4375 L364.4688,236.4375 L363.7188,239.5 L361.2813,239.5 L364.625,227.1094 Z " fill="#000000"/><text fill="#000000" font-family="sans-serif" font-size="14" font-style="italic" lengthAdjust="spacing" textLength="121.9805" x="380" y="238.8467">AbstractValidator</text></g><!--class Max__class--><g id="elem_Max__class"><rect codeLine="27" fill="#F1F1F1" height="32" id="Max__class" rx="2.5" ry="2.5" style="stroke:#181818;stroke-width:0.5;" width="60.9434" x="589" y="352"/><ellipse cx="604" cy="368" fill="#ADD1B2" rx="11" ry="11" style="stroke:#181818;stroke-width:1;"/><path d="M606.9688,373.6406 Q606.3906,373.9375 605.75,374.0781 Q605.1094,374.2344 604.4063,374.2344 Q601.9063,374.2344 600.5781,372.5938 Q599.2656,370.9375 599.2656,367.8125 Q599.2656,364.6875 600.5781,363.0313 Q601.9063,361.375 604.4063,361.375 Q605.1094,361.375 605.75,361.5313 Q606.4063,361.6875 606.9688,361.9844 L606.9688,364.7031 Q606.3438,364.125 605.75,363.8594 Q605.1563,363.5781 604.5313,363.5781 Q603.1875,363.5781 602.5,364.6563 Q601.8125,365.7188 601.8125,367.8125 Q601.8125,369.9063 602.5,370.9844 Q603.1875,372.0469 604.5313,372.0469 Q605.1563,372.0469 605.75,371.7813 Q606.3438,371.5 606.9688,370.9219 L606.9688,373.6406 Z " fill="#000000"/><text fill="#000000" font-family="sans-serif" font-size="14" lengthAdjust="spacing" textLength="28.9434" x="618" y="372.8467">Max</text></g><!--class MaxLength__class--><g id="elem_MaxLength__class"><rect codeLine="31" fill="#F1F1F1" height="32" id="MaxLength__class" rx="2.5" ry="2.5" style="stroke:#181818;stroke-width:0.5;" width="109.4785" x="565" y="285"/><ellipse cx="580" cy="301" fill="#ADD1B2" rx="11" ry="11" style="stroke:#181818;stroke-width:1;"/><path d="M582.9688,306.6406 Q582.3906,306.9375 581.75,307.0781 Q581.1094,307.2344 580.4063,307.2344 Q577.9063,307.2344 576.5781,305.5938 Q575.2656,303.9375 575.2656,300.8125 Q575.2656,297.6875 576.5781,296.0313 Q577.9063,294.375 580.4063,294.375 Q581.1094,294.375 581.75,294.5313 Q582.4063,294.6875 582.9688,294.9844 L582.9688,297.7031 Q582.3438,297.125 581.75,296.8594 Q581.1563,296.5781 580.5313,296.5781 Q579.1875,296.5781 578.5,297.6563 Q577.8125,298.7188 577.8125,300.8125 Q577.8125,302.9063 578.5,303.9844 Q579.1875,305.0469 580.5313,305.0469 Q581.1563,305.0469 581.75,304.7813 Q582.3438,304.5 582.9688,303.9219 L582.9688,306.6406 Z " fill="#000000"/><text fill="#000000" font-family="sans-serif" font-size="14" lengthAdjust="spacing" textLength="77.4785" x="594" y="305.8467">MaxLength</text></g><!--class Min__class--><g id="elem_Min__class"><rect codeLine="35" fill="#F1F1F1" height="32" id="Min__class" rx="2.5" ry="2.5" style="stroke:#181818;stroke-width:0.5;" width="56.8418" x="399.5" y="289"/><ellipse cx="414.5" cy="305" fill="#ADD1B2" rx="11" ry="11" style="stroke:#181818;stroke-width:1;"/><path d="M417.4688,310.6406 Q416.8906,310.9375 416.25,311.0781 Q415.6094,311.2344 414.9063,311.2344 Q412.4063,311.2344 411.0781,309.5938 Q409.7656,307.9375 409.7656,304.8125 Q409.7656,301.6875 411.0781,300.0313 Q412.4063,298.375 414.9063,298.375 Q415.6094,298.375 416.25,298.5313 Q416.9063,298.6875 417.4688,298.9844 L417.4688,301.7031 Q416.8438,301.125 416.25,300.8594 Q415.6563,300.5781 415.0313,300.5781 Q413.6875,300.5781 413,301.6563 Q412.3125,302.7188 412.3125,304.8125 Q412.3125,306.9063 413,307.9844 Q413.6875,309.0469 415.0313,309.0469 Q415.6563,309.0469 416.25,308.7813 Q416.8438,308.5 417.4688,307.9219 L417.4688,310.6406 Z " fill="#000000"/><text fill="#000000" font-family="sans-serif" font-size="14" lengthAdjust="spacing" textLength="24.8418" x="428.5" y="309.8467">Min</text></g><!--class MinLength__class--><g id="elem_MinLength__class"><rect codeLine="39" fill="#F1F1F1" height="32" id="MinLength__class" rx="2.5" ry="2.5" style="stroke:#181818;stroke-width:0.5;" width="105.377" x="567" y="218"/><ellipse cx="582" cy="234" fill="#ADD1B2" rx="11" ry="11" style="stroke:#181818;stroke-width:1;"/><path d="M584.9688,239.6406 Q584.3906,239.9375 583.75,240.0781 Q583.1094,240.2344 582.4063,240.2344 Q579.9063,240.2344 578.5781,238.5938 Q577.2656,236.9375 577.2656,233.8125 Q577.2656,230.6875 578.5781,229.0313 Q579.9063,227.375 582.4063,227.375 Q583.1094,227.375 583.75,227.5313 Q584.4063,227.6875 584.9688,227.9844 L584.9688,230.7031 Q584.3438,230.125 583.75,229.8594 Q583.1563,229.5781 582.5313,229.5781 Q581.1875,229.5781 580.5,230.6563 Q579.8125,231.7188 579.8125,233.8125 Q579.8125,235.9063 580.5,236.9844 Q581.1875,238.0469 582.5313,238.0469 Q583.1563,238.0469 583.75,237.7813 Q584.3438,237.5 584.9688,236.9219 L584.9688,239.6406 Z " fill="#000000"/><text fill="#000000" font-family="sans-serif" font-size="14" lengthAdjust="spacing" textLength="73.377" x="596" y="238.8467">MinLength</text></g><!--class Pattern__class--><g id="elem_Pattern__class"><rect codeLine="43" fill="#F1F1F1" height="32" id="Pattern__class" rx="2.5" ry="2.5" style="stroke:#181818;stroke-width:0.5;" width="83.2422" x="578" y="151"/><ellipse cx="593" cy="167" fill="#ADD1B2" rx="11" ry="11" style="stroke:#181818;stroke-width:1;"/><path d="M595.9688,172.6406 Q595.3906,172.9375 594.75,173.0781 Q594.1094,173.2344 593.4063,173.2344 Q590.9063,173.2344 589.5781,171.5938 Q588.2656,169.9375 588.2656,166.8125 Q588.2656,163.6875 589.5781,162.0313 Q590.9063,160.375 593.4063,160.375 Q594.1094,160.375 594.75,160.5313 Q595.4063,160.6875 595.9688,160.9844 L595.9688,163.7031 Q595.3438,163.125 594.75,162.8594 Q594.1563,162.5781 593.5313,162.5781 Q592.1875,162.5781 591.5,163.6563 Q590.8125,164.7188 590.8125,166.8125 Q590.8125,168.9063 591.5,169.9844 Q592.1875,171.0469 593.5313,171.0469 Q594.1563,171.0469 594.75,170.7813 Q595.3438,170.5 595.9688,169.9219 L595.9688,172.6406 Z " fill="#000000"/><text fill="#000000" font-family="sans-serif" font-size="14" lengthAdjust="spacing" textLength="51.2422" x="607" y="171.8467">Pattern</text></g><!--class Required__class--><g id="elem_Required__class"><rect codeLine="47" fill="#F1F1F1" height="32" id="Required__class" rx="2.5" ry="2.5" style="stroke:#181818;stroke-width:0.5;" width="95.2461" x="572" y="84"/><ellipse cx="587" cy="100" fill="#ADD1B2" rx="11" ry="11" style="stroke:#181818;stroke-width:1;"/><path d="M589.9688,105.6406 Q589.3906,105.9375 588.75,106.0781 Q588.1094,106.2344 587.4063,106.2344 Q584.9063,106.2344 583.5781,104.5938 Q582.2656,102.9375 582.2656,99.8125 Q582.2656,96.6875 583.5781,95.0313 Q584.9063,93.375 587.4063,93.375 Q588.1094,93.375 588.75,93.5313 Q589.4063,93.6875 589.9688,93.9844 L589.9688,96.7031 Q589.3438,96.125 588.75,95.8594 Q588.1563,95.5781 587.5313,95.5781 Q586.1875,95.5781 585.5,96.6563 Q584.8125,97.7188 584.8125,99.8125 Q584.8125,101.9063 585.5,102.9844 Q586.1875,104.0469 587.5313,104.0469 Q588.1563,104.0469 588.75,103.7813 Q589.3438,103.5 589.9688,102.9219 L589.9688,105.6406 Z " fill="#000000"/><text fill="#000000" font-family="sans-serif" font-size="14" lengthAdjust="spacing" textLength="63.2461" x="601" y="104.8467">Required</text></g><!--reverse link ValidatorInterface__class to AbstractValidator__class--><g id="link_ValidatorInterface__class_AbstractValidator__class"><path d="M243.66,226 C282.85,226 311.98,226 350.89,226 " fill="none" id="ValidatorInterface__class-backto-AbstractValidator__class" style="stroke:#516F42;stroke-width:1;stroke-dasharray:7.0,7.0;"/><polygon fill="none" points="225.66,226,243.66,232,243.66,220,225.66,226" style="stroke:#516F42;stroke-width:1;"/></g><!--reverse link MessageGetterInterface__class to AbstractValidator__class--><g id="link_MessageGetterInterface__class_AbstractValidator__class"><path d="M237,268.79 C237,249.71 237,242 237,242 C237,242 297.85,242 350.86,242 " fill="none" id="MessageGetterInterface__class-backto-AbstractValidator__class" style="stroke:#516F42;stroke-width:1;stroke-dasharray:7.0,7.0;"/><polygon fill="none" points="237,286.79,243,268.79,231,268.79,237,286.79" style="stroke:#516F42;stroke-width:1;"/></g><!--reverse link AbstractValidator__class to Max__class--><g id="link_AbstractValidator__class_Max__class"><path d="M473,268.16 C473,303.8 473,368 473,368 C473,368 545.83,368 588.79,368 " fill="none" id="AbstractValidator__class-backto-Max__class" style="stroke:#516F42;stroke-width:1;"/><polygon fill="none" points="473,250.16,467,268.16,479,268.16,473,250.16" style="stroke:#516F42;stroke-width:1;"/></g><!--reverse link AbstractValidator__class to MaxLength__class--><g id="link_AbstractValidator__class_MaxLength__class"><path d="M489,268 C489,288.39 489,303 489,303 C489,303 529.15,303 564.91,303 " fill="none" id="AbstractValidator__class-backto-MaxLength__class" style="stroke:#516F42;stroke-width:1;"/><polygon fill="none" points="489,250,483,268,495,268,489,250" style="stroke:#516F42;stroke-width:1;"/></g><!--reverse link ValidatorInterface__class to Min__class--><g id="link_ValidatorInterface__class_Min__class"><path d="M243.88,234 C280.93,234 299,234 299,234 C299,234 299,299.67 299,299.67 C299,299.67 361.37,299.67 399.37,299.67 " fill="none" id="ValidatorInterface__class-backto-Min__class" style="stroke:#516F42;stroke-width:1;stroke-dasharray:7.0,7.0;"/><polygon fill="none" points="225.88,234,243.88,240,243.88,228,225.88,234" style="stroke:#516F42;stroke-width:1;"/></g><!--reverse link MessageGetterInterface__class to Min__class--><g id="link_MessageGetterInterface__class_Min__class"><path d="M265.33,310.33 C319.29,310.33 363.77,310.33 399.32,310.33 " fill="none" id="MessageGetterInterface__class-backto-Min__class" style="stroke:#516F42;stroke-width:1;stroke-dasharray:7.0,7.0;"/><polygon fill="none" points="247.33,310.33,265.33,316.33,265.33,304.33,247.33,310.33" style="stroke:#516F42;stroke-width:1;"/></g><!--reverse link AbstractValidator__class to MinLength__class--><g id="link_AbstractValidator__class_MinLength__class"><path d="M523.06,234 C543.85,234 547.86,234 566.96,234 " fill="none" id="AbstractValidator__class-backto-MinLength__class" style="stroke:#516F42;stroke-width:1;"/><polygon fill="none" points="505.06,234,523.06,240,523.06,228,505.06,234" style="stroke:#516F42;stroke-width:1;"/></g><!--reverse link AbstractValidator__class to Pattern__class--><g id="link_AbstractValidator__class_Pattern__class"><path d="M454,199.78 C454,179.95 454,167 454,167 C454,167 528.71,167 577.74,167 " fill="none" id="AbstractValidator__class-backto-Pattern__class" style="stroke:#516F42;stroke-width:1;"/><polygon fill="none" points="454,217.78,460,199.78,448,199.78,454,217.78" style="stroke:#516F42;stroke-width:1;"/></g><!--reverse link AbstractValidator__class to Required__class--><g id="link_AbstractValidator__class_Required__class"><path d="M403,199.84 C403,164.2 403,100 403,100 C403,100 508.26,100 571.99,100 " fill="none" id="AbstractValidator__class-backto-Required__class" style="stroke:#516F42;stroke-width:1;"/><polygon fill="none" points="403,217.84,409,199.84,397,199.84,403,217.84" style="stroke:#516F42;stroke-width:1;"/></g><!--SRC=[rPHDImCn48Rl-HM3NhqewgaKQWKH58g2fuKotSpkXkPZJLBR8ltlPZ-xzaDQ4Oev9JEJUPzv0m40DnKwHuiA1jQQ-T18O-7yvl8skRvYqCrZxCM7yCixOpdPGmendgRMp3IlYvDoxIw-5wYCvWStR-eFqN0PSZCNEeK4fIF6zgVM6Iaq-MLEOApF3Ci49o2L-oKeKXEoZabAF7W3LgIP1oui1JQZcICF6XMv76DwfQAT3sXHn5WRXb6M3utsLaoYw0sbu6NDPm4EiKJduAmDFsfFDWctpW0TR8V7u-f6hmUq236D4lhzgjUAhOvJVIRdCAK7yg7JT-NTgQFKZKJRaNQrDawSj-5fMuf17MWhIu2jQACTbb2v94NQk-3qpZaxsqtuYxrNVfxvk2bRYt5H-OcBzG25TvhNy9iDecZ_wBzcU2AT-gmXgKwdun6w8X7wdpwgq5r3czF931rXCLnbQhq_6SiBlS_2zyXBcERmfpHV]--></g></svg>